<?xml version="1.0" encoding="UTF-8"?> <svg xmlns="http://www.w3.org/2000/svg" xmlns:xlink="http://www.w3.org/1999/xlink" width="64" height="64" viewBox="0 0 64 64" fill="#4876ca"><defs><clipPath id="clip-path"><rect width="64" height="64"></rect></clipPath></defs><g clip-path="url(#clip-path)"><g id="ico-1-category-row"><path id="Forma_1" data-name="Forma 1" class="cls-1" d="M64,46.135c0-.156,0-0.31,0-0.465a1.254,1.254,0,0,0-1.25-1.257h-5.5V13.181A3.177,3.177,0,0,0,54.081,10H9.919a3.177,3.177,0,0,0-3.165,3.182V44.413H1.25A1.253,1.253,0,0,0,0,45.671c0,0.154,0,.309,0,0.465C-0.013,47.93-.028,50.164,1.6,51.816,3.076,53.306,5.514,54,9.277,54H54.723c3.763,0,6.2-.694,7.672-2.183C64.027,50.164,64.013,47.93,64,46.135ZM9.254,13.181h0a0.675,0.675,0,0,1,.664-0.668H54.081a0.675,0.675,0,0,1,.664.668V44.413H52.77V15.756A1.253,1.253,0,0,0,51.52,14.5H12.479a1.253,1.253,0,0,0-1.25,1.256V44.413H9.254V13.181ZM50.27,17.014v27.4H13.729v-27.4H50.27Zm10.352,33.03c-0.945.956-2.929,1.44-5.9,1.44H9.277c-2.97,0-4.954-.485-5.9-1.44a4.33,4.33,0,0,1-.88-3.116h59A4.33,4.33,0,0,1,60.622,50.044ZM30.452,19.926H17.8a1.254,1.254,0,0,0-1.25,1.258V32.656a1.254,1.254,0,0,0,1.25,1.257H30.452a1.254,1.254,0,0,0,1.25-1.257V21.184A1.254,1.254,0,0,0,30.452,19.926ZM29.2,31.4H19.046V22.441H29.2V31.4Zm16.25-11.471H36.468a1.258,1.258,0,0,0,0,2.515h8.984A1.258,1.258,0,0,0,45.452,19.926Zm0,5.736H36.468a1.257,1.257,0,0,0,0,2.514h8.984A1.257,1.257,0,0,0,45.452,25.662Zm0,5.735H36.468a1.257,1.257,0,0,0,0,2.515h8.984A1.257,1.257,0,0,0,45.452,31.4Zm0,5.619H21.428a1.258,1.258,0,0,0,0,2.515H45.452A1.258,1.258,0,0,0,45.452,37.017Zm-27.568,0H17.8a1.258,1.258,0,0,0,0,2.515h0.088A1.258,1.258,0,0,0,17.884,37.017Z"></path></g></g></svg> 