<?xml version="1.0" encoding="UTF-8"?> <svg xmlns="http://www.w3.org/2000/svg" id="ico-2-category-row" width="64" height="64" viewBox="0 0 64 64" fill="#4876ca"><defs> </defs><path id="Forma_1" data-name="Forma 1" class="cls-1" d="M7.459,24.983a3.778,3.778,0,1,0,3.75,3.778A3.769,3.769,0,0,0,7.459,24.983Zm0,5.037a1.259,1.259,0,1,1,1.25-1.259A1.256,1.256,0,0,1,7.459,30.02Zm51.483-4.678a1.255,1.255,0,0,0-1.25,1.259v4.318a1.25,1.25,0,1,0,2.5,0V26.6A1.254,1.254,0,0,0,58.942,25.342ZM58.8,2H5.2A5.221,5.221,0,0,0,0,7.233V49.91a5.221,5.221,0,0,0,5.2,5.234H42.344l2.187,5.1a1.246,1.246,0,0,0,2.295,0l2.188-5.1H58.8A5.221,5.221,0,0,0,64,49.91V7.233A5.221,5.221,0,0,0,58.8,2ZM46.9,19.351H44.462V15.942a0.512,0.512,0,0,1,.5-0.506h1.428a0.512,0.512,0,0,1,.5.506v3.409Zm0,2.518V49.795H44.462V21.87H46.9Zm0,31.863-1.217,2.834-1.217-2.834V52.314H46.9v1.419Zm-0.5-40.816H44.965a3.018,3.018,0,0,0-3,3.026V48.821H14.918V9.1H53.98v39.72H49.4V15.942A3.018,3.018,0,0,0,46.393,12.917ZM58.8,52.625H49.4V51.34H55.23a1.254,1.254,0,0,0,1.25-1.259V7.842a1.254,1.254,0,0,0-1.25-1.259H13.667a1.254,1.254,0,0,0-1.25,1.259V50.081a1.254,1.254,0,0,0,1.25,1.259H41.962v1.285H5.2A2.709,2.709,0,0,1,2.5,49.91V7.233A2.709,2.709,0,0,1,5.2,4.517H58.8a2.709,2.709,0,0,1,2.7,2.716V49.91h0A2.709,2.709,0,0,1,58.8,52.625ZM18.065,21.177a1.254,1.254,0,0,0-1.25,1.259v0.1a1.25,1.25,0,1,0,2.5,0v-0.1A1.254,1.254,0,0,0,18.065,21.177Zm3.127-10.165H18.065a1.255,1.255,0,0,0-1.25,1.259v6.754a1.25,1.25,0,1,0,2.5,0V13.531h1.877A1.259,1.259,0,0,0,21.191,11.013ZM9.959,35.726h-5a1.259,1.259,0,0,0,0,2.519h5A1.259,1.259,0,0,0,9.959,35.726Zm0-16.449h-5a1.259,1.259,0,0,0,0,2.519h5A1.259,1.259,0,0,0,9.959,19.277Zm0,22.746h-5a1.259,1.259,0,0,0,0,2.518h5A1.259,1.259,0,0,0,9.959,42.023Zm0-29.043h-5a1.259,1.259,0,0,0,0,2.519h5A1.259,1.259,0,0,0,9.959,12.98Z" transform="translate(0 0.5)"></path></svg> 