<?xml version="1.0" encoding="UTF-8"?> <svg xmlns="http://www.w3.org/2000/svg" id="ico-1-video-row" width="64" height="64" viewBox="0 0 64 64" fill="#4876ca"><defs> </defs><path id="Forma_1" data-name="Forma 1" class="cls-1" d="M37.475,14.549a1.027,1.027,0,1,0,0,2.054,1.624,1.624,0,0,1,1.642,1.6,1.044,1.044,0,0,0,2.088,0A3.692,3.692,0,0,0,37.475,14.549Zm1.795,7.874a1.043,1.043,0,0,0-1.044,1.033,1.625,1.625,0,0,1-1.642,1.6,1.033,1.033,0,1,0,0,2.066,3.7,3.7,0,0,0,3.73-3.667A1.044,1.044,0,0,0,39.27,22.422ZM28.54,14.536a3.7,3.7,0,0,0-3.73,3.653,1.044,1.044,0,0,0,1.044,1.034A1.026,1.026,0,0,0,26.9,18.2a1.624,1.624,0,0,1,1.642-1.6A1.033,1.033,0,1,0,28.54,14.536Zm0.891,10.521a1.625,1.625,0,0,1-1.642-1.6,1.044,1.044,0,0,0-2.088,0,3.7,3.7,0,0,0,3.73,3.667A1.033,1.033,0,1,0,29.431,25.057Zm19.36,3.552-0.255-.731H45.354a5.412,5.412,0,0,0,.318-1.79,5.187,5.187,0,0,0-.344-1.851,5.27,5.27,0,0,0,1.247-3.4,5.353,5.353,0,0,0-1.808-3.993c0.013-.126.013-0.264,0.013-0.39a5.471,5.471,0,0,0-5.512-5.418H37.055a5.523,5.523,0,0,0-8.07,0H26.77a5.471,5.471,0,0,0-5.511,5.418c0,0.126,0,.252.013,0.39a5.354,5.354,0,0,0-1.807,3.993,5.2,5.2,0,0,0,1.247,3.4,5.187,5.187,0,0,0-.344,1.851,5.294,5.294,0,0,0,.318,1.79H17.517l-0.229.731a15.443,15.443,0,0,0-.675,4.032,16.086,16.086,0,0,0,6.606,13.468c2.52,1.852,3.653,3.791,3.653,6.3v4.359H24.7v2.066h2.253a6.181,6.181,0,0,0,12.194,0h2.24V56.767H39.219v-3.1H39.207v-1.26c0-2.519,1.107-4.409,3.7-6.336A15.923,15.923,0,0,0,48.791,28.609ZM34.064,11.537a3.393,3.393,0,0,1,1.667,1.16l0.318,0.4h3.22a3.392,3.392,0,0,1,3.424,3.351,3.778,3.778,0,0,1-.064.63l-0.127.655,0.547,0.391a3.271,3.271,0,0,1,.344,5.152l-0.6.542,0.382,0.706a3.2,3.2,0,0,1,.42,1.561,3.282,3.282,0,0,1-.534,1.79h-9V11.537h0Zm-11.1,6.59,0.547-.379-0.127-.654a2.868,2.868,0,0,1-.063-0.63,3.4,3.4,0,0,1,3.424-3.351h3.22l0.318-.4a3.353,3.353,0,0,1,1.68-1.16V27.89h-9a3.389,3.389,0,0,1-.535-1.8,3.2,3.2,0,0,1,.42-1.561l0.382-.706-0.6-.542A3.26,3.26,0,0,1,22.965,18.127Zm10.043,43.8a4.072,4.072,0,0,1-3.959-3.1h7.93A4.086,4.086,0,0,1,33.008,61.932Zm4.1-5.165H28.922v-3.1h8.184v3.1Zm4.519-12.334c-2.826,2.091-4.277,4.4-4.506,7.181H34.051V40.262h4.1V38.2H27.789v2.066h4.175V51.614H28.9c-0.229-2.8-1.655-5.09-4.455-7.143a14.014,14.014,0,0,1-5.753-11.755,13.237,13.237,0,0,1,.395-2.772h27.9A13.8,13.8,0,0,1,41.625,44.432ZM31.964,0h2.087V4.13H31.964V0ZM15.433,4.707l1.476-1.46,2.952,2.922L18.385,7.63ZM9.014,19.614h4.175V21.68H9.014V19.614Zm43.812,0H57V21.68H52.826V19.614ZM46.151,6.168L49.1,3.247l1.476,1.46L47.627,7.63Z" transform="translate(-1)"></path></svg> 