<?xml version="1.0" encoding="UTF-8"?> <svg xmlns="http://www.w3.org/2000/svg" id="ico-1-header-row" width="64" height="64" viewBox="0 0 64 64" fill="#4876ca"><defs> </defs><path class="cls-1" d="M56.465,30.157c-2.178-1.089-6.261-1.1-6.434-1.1a0.938,0.938,0,0,0,0,1.876,16.2,16.2,0,0,1,5.6.9,0.928,0.928,0,0,0,.419.1A0.938,0.938,0,0,0,56.465,30.157Zm4.674,13.352L57.267,42.4a0.393,0.393,0,0,1-.284-0.376V40.733a7.079,7.079,0,0,0,.9-0.735,6.9,6.9,0,0,0,2.111-4.991V33.222l0.374-.749a5.987,5.987,0,0,0,.628-2.662V24.979a0.937,0.937,0,0,0-.937-0.938H51.034a5.957,5.957,0,0,0-5.949,5.951v0.056a4.977,4.977,0,0,0,.522,2.213l0.48,0.961v1.532a7.319,7.319,0,0,0,3.007,5.916v1.355c0,0.209,0,.3-0.774.517l-1.889.541-5.465-1.988a0.936,0.936,0,0,0-.255-0.718l-1.746-1.836V35.46c0.185-.152.367-0.308,0.543-0.474a11.009,11.009,0,0,0,3.466-8V24.523a10.845,10.845,0,0,0,1-4.558V9.937A0.938,0.938,0,0,0,43.038,9H29a8.968,8.968,0,0,0-8.956,8.96v2.005a10.845,10.845,0,0,0,1,4.559v2.117a11.46,11.46,0,0,0,4.009,8.746v3.154l-1.746,1.836a0.936,0.936,0,0,0-.256.718l-5.768,2.1a4.893,4.893,0,0,0-1.159.607l-0.906-.453a7.16,7.16,0,0,0,3.591-2.908,0.936,0.936,0,0,0,0-.838c-0.676-1.352-.758-3.831-0.823-5.822-0.022-.663-0.043-1.29-0.082-1.848a8.156,8.156,0,0,0-7.952-7.89,8.156,8.156,0,0,0-7.952,7.89c-0.04.558-.06,1.184-0.082,1.848C1.859,35.77,1.777,38.249,1.1,39.6a0.936,0.936,0,0,0,0,.838A7.16,7.16,0,0,0,4.7,43.345L2.18,44.6A3.927,3.927,0,0,0,0,48.133v6.929a0.937,0.937,0,1,0,1.875,0V48.133a2.059,2.059,0,0,1,1.144-1.852l3.133-1.567,1.09,1.037a3.942,3.942,0,0,0,5.435,0l1.09-1.037,1.021,0.511a4.942,4.942,0,0,0-.754,2.619v7.218a0.938,0.938,0,1,0,1.875,0V47.844a3.083,3.083,0,0,1,2.022-2.888l6.082-2.212,2.532,3.8a1.935,1.935,0,0,0,1.423.854c0.065,0.006.129,0.009,0.193,0.009a1.931,1.931,0,0,0,1.37-.568l1.544-1.545v9.769a0.938,0.938,0,1,0,1.875,0V45.293l1.544,1.545a1.932,1.932,0,0,0,1.37.569c0.064,0,.129,0,0.193-0.01a1.933,1.933,0,0,0,1.423-.854l2.532-3.8,6.081,2.212a3.083,3.083,0,0,1,2.022,2.888v7.218a0.938,0.938,0,1,0,1.875,0V47.844A4.958,4.958,0,0,0,48.6,44.412l0.232-.066a5.072,5.072,0,0,0,.872-0.315L52.1,46.426v8.636a0.938,0.938,0,1,0,1.875,0V46.426l2.377-2.378a2.228,2.228,0,0,0,.4.159l3.872,1.106a2.08,2.08,0,0,1,1.5,1.991v7.758a0.938,0.938,0,1,0,1.875,0V47.3A3.963,3.963,0,0,0,61.139,43.508ZM6.014,41.852A6.739,6.739,0,0,1,3.006,39.92a10.349,10.349,0,0,0,.534-2.246,6.992,6.992,0,0,0,2.475,3.054v1.124Zm5.371,2.539a2.068,2.068,0,0,1-2.852,0l-0.872-.828a1.944,1.944,0,0,0,.228-0.916v-1a6.965,6.965,0,0,0,4.139,0v1a1.941,1.941,0,0,0,.228.916ZM9.959,40.085a5.084,5.084,0,0,1-5.077-5.079,0.938,0.938,0,0,0-.937-0.938,0.976,0.976,0,0,0-.154.014L3.8,33.841c0.021-.644.041-1.253,0.078-1.776a6.963,6.963,0,0,1,1.9-4.373,5.823,5.823,0,0,1,8.373,0,6.964,6.964,0,0,1,1.9,4.373c0.037,0.523.057,1.132,0.078,1.776,0,0.056,0,.112.006,0.167a8.426,8.426,0,0,0-4.631-3.385,11.781,11.781,0,0,0-3.566-.565,0.938,0.938,0,0,0-.649.287L5.588,32.1a0.938,0.938,0,1,0,1.35,1.3l1.408-1.46c1.212,0.059,5.112.513,6.628,3.854A5.066,5.066,0,0,1,9.959,40.085Zm3.944,1.77V40.737a6.936,6.936,0,0,0,2.475-3.057,10.333,10.333,0,0,0,.534,2.24A6.773,6.773,0,0,1,13.9,41.856Zm9.022-15.215V24.314a0.939,0.939,0,0,0-.093-0.408,9,9,0,0,1-.909-3.942V17.959A7.091,7.091,0,0,1,29,10.875H42.1v9.09a9,9,0,0,1-.909,3.941,0.939,0.939,0,0,0-.093.408v2.67a9,9,0,0,1-2.874,6.633,9.364,9.364,0,0,1-.72.61l-0.016.011a9.009,9.009,0,0,1-6.083,1.816A9.287,9.287,0,0,1,22.925,26.641ZM28.2,45.512a0.058,0.058,0,0,1-.052.018A0.061,0.061,0,0,1,28.1,45.5l-2.916-4.375,0.938-.986,4.423,3.025Zm3.808-3.619-5.077-3.471V36.67a10.553,10.553,0,0,0,4.349,1.256q0.371,0.024.738,0.024a10.856,10.856,0,0,0,5.067-1.243v1.713ZM35.92,45.5a0.059,0.059,0,0,1-.048.029,0.058,0.058,0,0,1-.052-0.019l-2.346-2.347L37.9,40.14l0.938,0.987Zm17.119-.791-2.127-2.128a2.59,2.59,0,0,0,.058-0.557v-0.4a6.55,6.55,0,0,0,1.857.328c0.072,0,.144,0,0.216,0a6.956,6.956,0,0,0,2.067-.313v0.378a2.235,2.235,0,0,0,.068.546Zm3.535-6.059a5.036,5.036,0,0,1-3.692,1.431,5.249,5.249,0,0,1-4.92-5.328V33a0.937,0.937,0,0,0-.1-0.419l-0.579-1.158a3.089,3.089,0,0,1-.324-1.375V29.993a4.08,4.08,0,0,1,4.074-4.076h8.084v3.9a4.1,4.1,0,0,1-.43,1.823l-0.473.946a0.937,0.937,0,0,0-.1.419v2.005A5.041,5.041,0,0,1,56.574,38.652Zm2.479,9.456a0.937,0.937,0,0,0-.937.938v6.016a0.938,0.938,0,1,0,1.875,0V49.045A0.937,0.937,0,0,0,59.053,48.107ZM4.947,49.346a0.938,0.938,0,0,0-.937.938v4.777a0.938,0.938,0,1,0,1.875,0V50.284A0.938,0.938,0,0,0,4.947,49.346ZM39.691,20.305c-3.546-3.547-10.964-2.869-13.989-2.413a1.925,1.925,0,0,0-1.644,1.917v2.161a0.938,0.938,0,1,0,1.875,0V19.81a0.062,0.062,0,0,1,.049-0.063,29.683,29.683,0,0,1,6.091-.3c2.923,0.2,5.041.929,6.294,2.183A0.938,0.938,0,1,0,39.691,20.305ZM20.986,50.113a0.937,0.937,0,0,0-.937.938v4.011a0.938,0.938,0,1,0,1.875,0V51.05A0.938,0.938,0,0,0,20.986,50.113Zm22.053,0a0.937,0.937,0,0,0-.937.938v4.011a0.938,0.938,0,1,0,1.875,0V51.05A0.938,0.938,0,0,0,43.038,50.113Z" transform="translate(0 -0.5)"></path></svg> 