<?xml version="1.0" encoding="UTF-8"?> <svg xmlns="http://www.w3.org/2000/svg" id="ico-3-category-row" width="64" height="64" viewBox="0 0 64 64" fill="#4876ca"><defs> </defs><path id="Forma_1" data-name="Forma 1" class="cls-1" d="M53.122,37.994a6.461,6.461,0,0,0-12.868.945V56.422a6.461,6.461,0,0,0,12.868.945,4.675,4.675,0,0,0,3.644-4.582V42.577A4.677,4.677,0,0,0,53.122,37.994Zm1.58,14.79a2.594,2.594,0,0,1-1.512,2.363V45.939a1.032,1.032,0,1,0-2.065,0V56.422a4.4,4.4,0,1,1-8.807,0V38.94a4.4,4.4,0,1,1,8.807,0v2.8a1.032,1.032,0,1,0,2.065,0V40.215A2.591,2.591,0,0,1,54.7,42.577V52.784ZM17.277,32.362a6.514,6.514,0,0,0-6.4,5.632,4.677,4.677,0,0,0-3.644,4.583V52.784a4.675,4.675,0,0,0,3.644,4.582,6.461,6.461,0,0,0,12.868-.945V38.94A6.531,6.531,0,0,0,17.277,32.362Zm4.4,24.06a4.4,4.4,0,1,1-8.807,0V45.939a1.032,1.032,0,1,0-2.065,0v9.208A2.593,2.593,0,0,1,9.3,52.784V42.577a2.592,2.592,0,0,1,1.512-2.363V41.74a1.032,1.032,0,1,0,2.065,0v-2.8a4.4,4.4,0,1,1,8.807,0V56.422Zm32.947-45.89a31.623,31.623,0,0,0-45.255,0A32.61,32.61,0,0,0,0,33.543a1.041,1.041,0,0,0,1.032,1.05H1.744A1.052,1.052,0,0,0,2.08,32.55a30.479,30.479,0,0,1,8.752-20.535,29.583,29.583,0,0,1,42.335,0A30.481,30.481,0,0,1,61.92,32.55a1.052,1.052,0,0,0,.336,2.043h0.712A1.041,1.041,0,0,0,64,33.543,32.611,32.611,0,0,0,54.628,10.531ZM32,4.522c-15.734,0-28.535,13.019-28.535,29.021a29.616,29.616,0,0,0,.752,6.643v7.494a1.032,1.032,0,1,0,2.065,0V40.064a1.07,1.07,0,0,0-.028-0.244,27.47,27.47,0,0,1-.724-6.276A26.729,26.729,0,0,1,32,6.622,26.729,26.729,0,0,1,58.471,33.543a27.47,27.47,0,0,1-.724,6.276,1.069,1.069,0,0,0-.028.244v7.617a1.032,1.032,0,1,0,2.065,0V40.186a29.62,29.62,0,0,0,.752-6.643C60.535,17.541,47.734,4.522,32,4.522Z"></path></svg> 