<?xml version="1.0" encoding="UTF-8"?> <svg xmlns="http://www.w3.org/2000/svg" id="ico-3-video-row" width="64" height="64" viewBox="0 0 64 64" fill="#4876ca"><defs> </defs><path id="Forma_1" data-name="Forma 1" class="cls-1" d="M21.535,32.6a0.737,0.737,0,0,0-.825-0.169,0.782,0.782,0,0,0-.468.724V47.065a0.771,0.771,0,0,0,.758.783H34.443a0.757,0.757,0,0,0,.7-0.483,0.807,0.807,0,0,0-.164-0.856ZM21.757,46.28V35.044L32.614,46.28H21.757ZM59.763,4.827L55.825,0.751a0.741,0.741,0,0,0-1.071,0L31.992,24.31a0.777,0.777,0,0,0-.168.263l-2.5,6.484L19.288,20.666l1.8-1.864a0.8,0.8,0,0,0,0-1.109,0.739,0.739,0,0,0-1.071,0l-1.8,1.865L15.2,16.43V0.781A0.771,0.771,0,0,0,14.438,0H5.753A0.771,0.771,0,0,0,5,.781V63.215A0.771,0.771,0,0,0,5.753,64h8.684a0.771,0.771,0,0,0,.757-0.783V54.64H49.972l2.115,2.189a0.738,0.738,0,0,0,1.071,0,0.8,0.8,0,0,0,0-1.109L30.481,32.25l6.265-2.582A0.768,0.768,0,0,0,37,29.494L59.763,5.936A0.8,0.8,0,0,0,59.763,4.827ZM13.68,62.43H6.511v-1.4h1.3a0.784,0.784,0,0,0,0-1.568h-1.3V57h1.3a0.784,0.784,0,0,0,0-1.568h-1.3V52.963h1.3a0.785,0.785,0,0,0,0-1.569h-1.3V48.927h1.3a0.785,0.785,0,0,0,0-1.569h-1.3V44.89h1.3a0.784,0.784,0,0,0,0-1.568h-1.3V40.854h1.3a0.784,0.784,0,0,0,0-1.568h-1.3V36.818h1.3a0.785,0.785,0,0,0,0-1.568h-1.3V32.781h1.3a0.784,0.784,0,0,0,0-1.568h-1.3V28.746h1.3a0.784,0.784,0,0,0,0-1.568h-1.3V24.71h1.3a0.784,0.784,0,0,0,0-1.568h-1.3V20.673h1.3a0.784,0.784,0,0,0,0-1.568h-1.3V16.637h1.3a0.784,0.784,0,0,0,0-1.567h-1.3V12.6h1.3a0.784,0.784,0,0,0,0-1.567h-1.3V8.566h1.3A0.785,0.785,0,0,0,7.812,7h-1.3V4.529h1.3a0.784,0.784,0,0,0,0-1.567h-1.3v-1.4H13.68V62.43h0Zm1.515-9.358V18.647l3.686,3.815-2.155,2.23a0.8,0.8,0,0,0,0,1.109,0.739,0.739,0,0,0,1.071,0l2.155-2.23,1.686,1.745-2.155,2.231a0.8,0.8,0,0,0,0,1.108,0.737,0.737,0,0,0,1.071,0l2.155-2.229L24.4,28.17,22.241,30.4a0.8,0.8,0,0,0,0,1.109,0.74,0.74,0,0,0,1.071,0l2.155-2.23,1.686,1.745L25,33.255a0.8,0.8,0,0,0,0,1.109,0.741,0.741,0,0,0,1.071,0l2.155-2.23,1.686,1.745-2.155,2.231a0.8,0.8,0,0,0,0,1.108,0.738,0.738,0,0,0,1.071,0l2.155-2.23,1.686,1.745-2.155,2.23a0.8,0.8,0,0,0,0,1.109,0.738,0.738,0,0,0,1.071,0L33.74,37.84l1.686,1.746-2.155,2.231a0.8,0.8,0,0,0,0,1.108,0.74,0.74,0,0,0,1.071,0L36.5,40.7l1.686,1.745-2.155,2.231a0.8,0.8,0,0,0,0,1.108,0.74,0.74,0,0,0,1.071,0l2.155-2.23,1.686,1.746-2.155,2.229a0.8,0.8,0,0,0,0,1.109,0.738,0.738,0,0,0,1.071,0L42.013,46.4,43.7,48.148l-2.155,2.231a0.8,0.8,0,0,0,0,1.109,0.738,0.738,0,0,0,1.071,0l2.155-2.231,3.686,3.815H15.195ZM35.568,26.9L54.4,7.407l0.9,0.93L36.466,27.831ZM34.5,25.792l-0.9-.929L52.434,5.369l0.9,0.929Zm-1.691.468,2.311,2.391-3.841,1.584ZM56.372,7.229L53.505,4.261l1.784-1.847,2.867,2.968ZM55.009,57.636a0.74,0.74,0,0,0-1.071,0,0.8,0.8,0,0,0,0,1.108l2.337,2.42a0.74,0.74,0,0,0,1.071,0,0.8,0.8,0,0,0,0-1.109ZM59.2,61.969a0.739,0.739,0,0,0-1.071,0,0.8,0.8,0,0,0,0,1.108l0.048,0.05a0.739,0.739,0,0,0,1.071,0,0.8,0.8,0,0,0,0-1.109ZM34.968,4.114a0.743,0.743,0,0,0,.536-0.23l0.121-.124a0.8,0.8,0,0,0,0-1.11,0.739,0.739,0,0,0-1.071,0l-0.121.125a0.8,0.8,0,0,0,0,1.108A0.741,0.741,0,0,0,34.968,4.114ZM30.78,8.448a0.74,0.74,0,0,0,.536-0.23L33.653,5.8a0.8,0.8,0,0,0,0-1.108,0.739,0.739,0,0,0-1.071,0L30.244,7.11a0.8,0.8,0,0,0,0,1.108A0.74,0.74,0,0,0,30.78,8.448Zm-4.187,4.335a0.743,0.743,0,0,0,.535-0.23l2.337-2.419a0.8,0.8,0,0,0,0-1.108,0.739,0.739,0,0,0-1.071,0l-2.338,2.419a0.8,0.8,0,0,0,0,1.108A0.744,0.744,0,0,0,26.593,12.783ZM22.4,17.115a0.739,0.739,0,0,0,.535-0.229l2.337-2.418a0.8,0.8,0,0,0,0-1.109,0.74,0.74,0,0,0-1.071,0l-2.337,2.42a0.8,0.8,0,0,0,0,1.108A0.74,0.74,0,0,0,22.4,17.115Z" transform="translate(-0.5)"></path></svg> 