<?xml version="1.0" encoding="UTF-8"?> <svg xmlns="http://www.w3.org/2000/svg" id="ico-2-video-row" width="64" height="64" viewBox="0 0 64 64" fill="#4876ca"><defs> </defs><path class="cls-1" d="M64,39.465h0V1.065A1.008,1.008,0,0,0,62.932,0H1.068A1.008,1.008,0,0,0,0,1.065V51.2a1.008,1.008,0,0,0,1.067,1.067H11.734V50.13h-9.6v-48h59.73V38.4H51.2a1.008,1.008,0,0,0-1.067,1.068V50.13H26.667v2.134H51.2a0.966,0.966,0,0,0,.747-0.32L63.679,40.211c0.107-.107.107-0.213,0.213-0.32V39.784A0.39,0.39,0,0,0,64,39.465ZM52.266,40.531h8.106l-4.053,4.053-4.053,4.053V40.531ZM20.161,10.344a0.99,0.99,0,0,0-1.92,0l-3.093,9.28a1.518,1.518,0,0,0-.213.641V62.931A1.008,1.008,0,0,0,16,64h6.4a1.007,1.007,0,0,0,1.067-1.067V20.265a1.147,1.147,0,0,0-.213-0.641ZM17.068,21.331h1.067V54.4H17.068V21.331Zm3.2,0h1.067V54.4H20.267V21.331ZM19.2,14.078l1.707,5.12H17.494Zm2.133,47.787H17.068V56.531h4.267v5.334Zm16-55.467a9.56,9.56,0,0,0-9.6,9.6v2.132h2.133V16A7.466,7.466,0,1,1,44.8,16v2.132h2.133V16A9.56,9.56,0,0,0,37.333,6.4ZM57.6,17.064V14.931H55.466v2.133a7.466,7.466,0,1,1-14.933,0V14.931H38.4v2.133A9.6,9.6,0,1,0,57.6,17.064ZM26.667,35.2V45.865a1.008,1.008,0,0,0,1.067,1.066H38.4a1.008,1.008,0,0,0,1.067-1.066V35.2A1.007,1.007,0,0,0,38.4,34.132H27.734A1.007,1.007,0,0,0,26.667,35.2ZM28.8,36.264h8.533V44.8H28.8V36.264Zm12.8,1.067v2.134h2.133A1.008,1.008,0,0,0,44.8,38.4V29.864A1.007,1.007,0,0,0,43.733,28.8H35.2a1.007,1.007,0,0,0-1.067,1.066V32h2.133V30.931h6.4v6.4H41.6Zm-35.2-32H8.534V7.464H6.4V5.331Zm4.267,0H12.8V7.464H10.668V5.331Zm4.267,0h2.133V7.464H14.934V5.331ZM10.668,9.6H12.8v2.134H10.668V9.6ZM6.4,9.6H8.534v2.134H6.4V9.6Zm0,4.266H8.534V16H6.4V13.864Zm0,4.267H8.534v2.134H6.4V18.131Zm0,4.266H8.534v2.134H6.4V22.4Zm0,4.267H8.534V28.8H6.4V26.664Zm0,4.266H8.534v2.134H6.4V30.931Zm0,4.267H8.534v2.134H6.4V35.2Zm0,4.268H8.534V41.6H6.4V39.465Zm0,4.266H8.534v2.134H6.4V43.731Z"></path></svg> 