<?xml version="1.0" encoding="UTF-8"?> <svg xmlns="http://www.w3.org/2000/svg" id="ico-2-header-row" width="64" height="64" viewBox="0 0 64 64" fill="#4876ca"><defs> </defs><path class="cls-1" d="M36.4,41.166a3.254,3.254,0,1,0,3.221,3.253A3.241,3.241,0,0,0,36.4,41.166Zm0,4.424a1.17,1.17,0,1,1,1.159-1.17A1.166,1.166,0,0,1,36.4,45.59ZM53.066,6.178l0.439-1.305a1.044,1.044,0,0,0-.645-1.321,1.029,1.029,0,0,0-1.308.651l-0.439,1.3a4.168,4.168,0,0,0-2.213.428,4.231,4.231,0,0,0-2.135,2.457L42.72,20.416H41.473L41.262,5.307a2.559,2.559,0,0,0-5.117,0L35.934,20.416H33.571V8.254a1.05,1.05,0,0,0-.175-0.58L28.608,0.461a1.026,1.026,0,0,0-1.713,0L22.106,7.673a1.05,1.05,0,0,0-.175.58V20.416H19.413a1.042,1.042,0,0,0,0,2.083h0.208v3.512H15.633A6.673,6.673,0,0,0,9,32.709V47.976a6.673,6.673,0,0,0,6.633,6.7h3.988v3.291A6.012,6.012,0,0,0,25.6,64H47.339a6.012,6.012,0,0,0,5.976-6.034V22.5h0.208a1.042,1.042,0,0,0,0-2.083h-1.87l3.122-9.278A4.3,4.3,0,0,0,53.066,6.178ZM19.62,48.7H16a1.1,1.1,0,0,1-1.093-1.1V33.084A1.1,1.1,0,0,1,16,31.981H19.62V48.7Zm0-18.807H16a3.175,3.175,0,0,0-3.156,3.186V47.6A3.175,3.175,0,0,0,16,50.788H19.62v1.8H15.632a4.6,4.6,0,0,1-4.57-4.614V32.709a4.6,4.6,0,0,1,4.57-4.615H19.62v1.8ZM46.363,16.061l4.1,1.408-0.991,2.947H44.9ZM38.207,5.336a0.5,0.5,0,0,1,.992,0l0.21,15.08H38ZM36.639,22.5a1,1,0,0,0,.18.039V34.386a1.021,1.021,0,1,1-2.042,0V31.031a3.084,3.084,0,1,0-6.168,0v6.506a1.021,1.021,0,1,1-2.042,0V22.5H36.639Zm-5.131-2.083H28.782V10.25a13.015,13.015,0,0,0,2.726-.513V20.416Zm-3.757-17.5,1.026,1.545a3.511,3.511,0,0,1-1.026.153,3.486,3.486,0,0,1-1.026-.153Zm-2.2,3.321a5.514,5.514,0,0,0,2.205.46,5.526,5.526,0,0,0,2.2-.46l0.994,1.5a10.981,10.981,0,0,1-6.4,0ZM23.994,9.737a13.013,13.013,0,0,0,2.726.513V20.416H23.994V9.737ZM51.252,57.965h0a3.937,3.937,0,0,1-3.913,3.951H25.6a3.937,3.937,0,0,1-3.913-3.951V22.5H24.5V37.537a3.084,3.084,0,1,0,6.168,0V31.031a1.021,1.021,0,1,1,2.042,0v3.356a3.084,3.084,0,1,0,6.168,0V22.548l12.37-.049V57.965Zm1.569-47.5L51.129,15.5l-4.1-1.408,1.692-5.028A2.17,2.17,0,0,1,49.813,7.8a2.131,2.131,0,0,1,1.654-.109A2.2,2.2,0,0,1,52.821,10.468Z"></path></svg> 